<?xml version="1.0" encoding="UTF-8"?>
<svg id="Capa_2" data-name="Capa 2" xmlns="http://www.w3.org/2000/svg" viewBox="0 0 83.88 65.76">
  <defs>
    <style>
      .cls-1 {
        fill: #fcc52d;
      }

      .cls-1, .cls-2 {
        fill-rule: evenodd;
        stroke-width: 0px;
      }

      .cls-2 {
        fill: #fff;
      }
    </style>
  </defs>
  <g id="Capa_1-2" data-name="Capa 1">
    <path class="cls-1" d="m2.9,39.39l.55-.48-.55.48h0s0,0,0,0c-1.08-.23-1.68-.42-2.35-.69-.26-.1-.44-.31-.51-.58-.07-.27-.01-.54.16-.75l2.15-2.65c.21-.26.53-.37.86-.29.39.09.69.18,1.3.17l.53.02c2.76-.32,4.55-2.02,5.34-4.3.25-.71-.82-2.72-1.14-3.48L3.49,13.13c-.29-.71-.67-1.52-.99-2.3-.11-.27-.08-.56.08-.8.16-.24.42-.38.71-.38h3.4c.37,0,.68.22.81.57.32.9.9,2.11,1.24,2.89l4.32,10.27c.1.16.08.13.18.22.21-.78.78-1.96,1.13-2.8.86-2.03,1.32-3.6,2.61-5.45.44-.63,1.42-1.79,1.93-2.08v-.15s.06-.06.07-.04l.53-.41c.26-.21.42-.33.67-.51,2.04-1.47,2.84-1.45,4.77-2.32h.14c5.77-1.61,12.2-.23,14.67,3.5,1.65,2.5,1.73,4.55,1.73,7.95v9.01c0,.24-.09.44-.25.61-.17.17-.37.25-.61.25h-.73s-2.88-.07-2.88-.07c-.41,0-.76-.29-.84-.69l-.15-.8c-1.24,1.3-2.98,2.28-6.17,2.1-3.77-.22-7.96-2.16-7.79-6.49.11-2.7,2-4.73,3.48-5.78,1.95-1.38,4.59-1.8,7.45-1.8l2.87.13c-.2-1.45-.71-1.72-1.29-2.53h-.14c-2.14-1.88-6.74-1.29-9.3-.12-2.39,1.09-4.47,3.42-5.49,5.99l-.05.04-2.63,6.48-.04-.05c-.48,1.45-1.31,3.3-1.92,4.64-.86,1.86-1.29,2.66-2.49,3.91-2.09,2.18-5.24,3.72-9.61,3.26m70.99-12.93c-3.61,0-4.41-.58-4.41-5.1v-10.68c0-.64-.48-1.12-1.12-1.12h-3.35c-.64,0-1.12.48-1.12,1.12v10.94c0,6.98,3,9.7,9.99,9.72,6.99-.03,9.99-2.74,9.99-9.72v-10.94c0-.64-.48-1.12-1.12-1.12h-3.35c-.64,0-1.12.48-1.12,1.12v10.68c0,4.52-.8,5.1-4.41,5.1Zm-16.45,3.71l-1.77-3.16c-.61-1.12-1.22-2.14-1.81-3.07-.54-.84-1.07-1.62-1.61-2.33-.41.15-.89.31-1.43.48-.59.18-1.26.36-2.02.55v7.32c0,.44-.12.78-.36,1.03l-.02.02c-.24.23-.57.34-1,.34h-2.7c-.44,0-.78-.12-1.03-.36s-.36-.58-.36-1.03V1.39c0-.93.46-1.39,1.39-1.39h2.7c.93,0,1.39.46,1.39,1.39v15.42c.64-.05,1.3-.21,1.99-.49.84-.34,1.73-.86,2.66-1.55.93-.69,1.71-1.43,2.33-2.22.62-.78,1.09-1.61,1.42-2.48.13-.4.3-.71.53-.92.25-.24.55-.36.9-.36h2.7c.93,0,1.39.46,1.39,1.39,0,.04,0,.08-.02.12-.46,1.74-1.18,3.37-2.17,4.9-.94,1.45-2.11,2.81-3.51,4.06.62.86,1.24,1.77,1.83,2.7.66,1.03,1.31,2.11,1.95,3.23l2.59,4.64c.03.06.05.12.05.18,0,.43-.12.76-.36,1-.24.23-.57.35-1.01.35h-2.92c-.36,0-.69-.1-.98-.31-.28-.19-.52-.48-.72-.85v-.02Zm-21.5-7.89c-.91,5.21-5.92,5.57-7.54,4.22-.6-.5-.96-1.43-.41-2.37,1.17-2,6.11-2.14,7.95-1.84Z"/>
    <path class="cls-2" d="m43.86,44.06c5.33-2.09,13.22-1.11,15.99,3.07,1.65,2.5,1.73,4.55,1.73,7.95v9.01c0,.24-.09.44-.25.61-.17.17-.37.25-.61.25h-.73s-2.11,0-2.11,0c-.41,0-.76-.29-.84-.69l-.15-.8c-.98.55-1.68,1.27-3.14,1.59l-.07.02c-3.86,1.31-11.75-.15-11.52-6.07.11-2.7,2-4.73,3.48-5.78,1.95-1.38,4.59-1.8,7.45-1.8l2.87.13c-.2-1.45-.71-1.72-1.29-2.53h-.14c-1.96-1.71-5.97-1.37-8.59-.41-.41.15-.87-.03-1.06-.42l-1.46-2.94c-.11-.22-.12-.46-.03-.69.09-.23.25-.4.49-.49m25.45-8.41c0-.65-.49-1.15-1.15-1.15h-3.44c-.65,0-1.15.49-1.15,1.15v27.98c0,.44.22.76.55.93,2.56.87,6,1.2,8.62,1.2,7.31,0,11.13-4.53,11.13-11.73s-4.31-10.96-9.76-10.96c-.6,0-2.78,0-4.8,1.09v-8.51Zm8.84,18.38c0,4.53-1.47,6.71-5.24,6.71-.49,0-2.56,0-3.6-.65v-10.91c1.09-.87,2.84-1.09,3.38-1.09,3,0,5.46,1.42,5.46,5.95Zm-39.7-18.38c0-.65-.49-1.15-1.15-1.15h-3.44c-.65,0-1.15.49-1.15,1.15v25.2c0,1.69.16,4.91,3.65,4.91.87,0,1.85,0,2.89-.33.49-.16.87-.49.87-.93v-2.24c0-.27-.16-.55-.38-.65-.55-.44-1.31-1.04-1.31-2.56v-23.4Zm17.57,20.4c-.91,5.21-5.92,5.57-7.54,4.22-.6-.5-.96-1.43-.41-2.37,1.17-2,6.11-2.14,7.95-1.84Z"/>
  </g>
</svg>